<svg width="600" height="600" viewBox="0 0 600 600" xmlns="http://www.w3.org/2000/svg">
  <defs>
    <filter id="shadow" x="-20%" y="-20%" width="140%" height="140%">
      <feGaussianBlur in="SourceAlpha" stdDeviation="2"/>
      <feOffset dx="1" dy="1"/>
      <feComponentTransfer>
        <feFuncA type="linear" slope="0.3"/>
      </feComponentTransfer>
      <feMerge>
        <feMergeNode/>
        <feMergeNode in="SourceGraphic"/>
      </feMerge>
    </filter>
  </defs>
  <g filter="url(#shadow)">
    <path d="M 394.10254037844385 262.9903810567666 L 394.10254037844385 262.9903810567666 L 393.90224878392087 263.0377307729999 L 393.304532718446 263.17903318838967 L 392.31881852143005 263.412059879435 L 390.9606514945971 263.7331358760149 L 389.25145074328987 264.1371976178617 L 387.2181713843836 264.6178728099318 L 384.89287944799037 265.16758091730463 L 382.3122461770093 265.7776527147474 L 379.51696969971925 266.4384670055751 L 376.5511331959844 267.13960235367006 L 373.4615096791734 267.87000143575494 L 370.296824357798 268.6181454219859 L 367.1069862098677 269.3722356347806 L 363.9423008884924 270.12037962101164 L 360.8526773716814 270.85077870309647 L 357.8868408679465 271.5519140511915 L 355.09156439065646 272.2127283420192 L 352.5109311196754 272.82280013946195 L 350.1856391832822 273.37250824683485 L 348.15235982437594 273.85318343890486 L 346.4431590730687 274.2572451807517 L 345.0849920462357 274.57832117733153 L 344.09927784921973 274.81134786837697 L 343.5015617837449 274.9526502837667 L 343.3012701892219 275 L 343.4424220436035 274.8502172490953 L 343.8636515576845 274.4032311598388 L 344.5583156903976 273.66609096987474 L 345.5154591733977 272.65042182034495 L 346.719987282188 271.37224142046887 L 348.1529038889428 269.8517074387005 L 349.7916110427906 268.1127996042553 L 351.61026535299897 266.18294153245574 L 353.58018555468453 264.0925682379353 L 355.6703048294935 261.8746461562772 L 357.8476607478853 259.5641532436315 L 360.0779151063376 257.1975273534522 L 362.3258954613282 254.81209158978123 L 364.55614981978044 252.44546569960195 L 366.73350573817225 250.13497278695624 L 368.8236250129812 247.91705070529812 L 370.79354521466684 245.8266774107777 L 372.6121995248752 243.89681933897813 L 374.25090667872297 242.15791150453296 L 375.68382328547773 240.6373775227646 L 376.88835139426806 239.35919712288853 L 377.84549487726815 238.3435279733587 L 378.54015900998127 237.6063877833946 L 378.9613885240623 237.15940169413813 L 379.10254037844385 237.00961894323342 L 379.3028319729668 236.96226922700006 L 379.9005480384417 236.82096681161036 L 380.88626223545765 236.58794012056498 L 382.2444292622906 236.2668641239851 L 383.95363001359783 235.86280238213828 L 385.9869093725041 235.38212719006825 L 388.3122013088973 234.83241908269537 L 390.8928345798784 234.22234728525262 L 393.68811105716844 233.5615329944249 L 396.6539475609033 232.86039764632994 L 399.7435710777143 232.12999856424506 L 402.9082563990897 231.38185457801407 L 406.09809454701997 230.62776436521935 L 409.26277986839534 229.87962037898836 L 412.3524033852063 229.1492212969035 L 415.3182398889412 228.4480859488085 L 418.11351636623124 227.7872716579808 L 420.6941496372123 227.17719986053805 L 423.0194415736055 226.62749175316517 L 425.05272093251176 226.14681656109514 L 426.761921683819 225.74275481924832 L 428.120088710652 225.42167882266844 L 429.10580290766796 225.18865213162303 L 429.7035189731428 225.04734971623336 L 429.9038105676658 225 L 429.7626587132842 225.1497827509047 L 429.3414291992032 225.59676884016116 L 428.6467650664901 226.33390903012526 L 427.68962158349 227.34957817965508 L 426.4850934746997 228.62775857953116 L 425.0521768679449 230.1482925612995 L 423.4134697140972 231.88720039574466 L 421.59481540388873 233.81705846754429 L 419.62489520220316 235.90743176206468 L 417.5347759273942 238.1253538437228 L 415.3574200090024 240.4358467563685 L 413.1271656505501 242.80247264654778 L 410.8791852955595 245.18790841021874 L 408.64893093710725 247.55453430039805 L 406.47157501871544 249.86502721304376 L 404.3814557439065 252.08294929470188 L 402.4115355422209 254.17332258922227 L 400.5928812320125 256.10318066102184 L 398.9541740781647 257.84208849546707 L 397.52125747140997 259.3626224772354 L 396.31672936261964 260.64080287711147 L 395.35958587961954 261.65647202664127 L 394.66492174690643 262.3936122166054 L 394.2436922328254 262.8405983058619 L 394.10254037844385 262.9903810567666" fill="yellow" stroke="#2F4F4F" stroke-width="4"/>
    <path d="M 285 400 L 285 400 L 285.0591397401414 399.80286753286197 L 285.23562629153525 399.2145790282158 L 285.5266763558381 398.2444121472063 L 285.92769989967104 396.90766700109657 L 286.4323725421879 395.2254248593737 L 287.03273529433943 393.2242156855353 L 287.7193200768848 390.93559974371726 L 288.48129903765755 388.3956698744749 L 289.30665531326196 385.6444822891268 L 290.18237254218786 382.7254248593737 L 291.09464014060705 379.68453286464313 L 292.02907110353016 376.5697629882328 L 292.97092889646984 373.4302370117672 L 293.90535985939295 370.31546713535687 L 294.8176274578121 367.2745751406263 L 295.69334468673804 364.3555177108732 L 296.51870096234245 361.60433012552505 L 297.28067992311514 359.06440025628274 L 297.96726470566057 356.7757843144647 L 298.5676274578121 354.7745751406263 L 299.07230010032896 353.09233299890343 L 299.4733236441619 351.7555878527937 L 299.76437370846475 350.7854209717842 L 299.9408602598586 350.19713246713803 L 300 350 L 300.0591397401414 350.19713246713803 L 300.23562629153525 350.7854209717842 L 300.5266763558381 351.7555878527937 L 300.92769989967104 353.09233299890343 L 301.43237254218786 354.7745751406263 L 302.03273529433943 356.7757843144647 L 302.7193200768848 359.06440025628274 L 303.48129903765755 361.6043301255251 L 304.30665531326196 364.3555177108732 L 305.18237254218786 367.2745751406263 L 306.09464014060705 370.31546713535687 L 307.02907110353016 373.4302370117672 L 307.97092889646984 376.5697629882328 L 308.90535985939295 379.68453286464313 L 309.8176274578121 382.7254248593737 L 310.69334468673804 385.6444822891268 L 311.51870096234245 388.3956698744749 L 312.28067992311514 390.9355997437172 L 312.96726470566057 393.2242156855353 L 313.5676274578121 395.2254248593737 L 314.07230010032896 396.90766700109657 L 314.4733236441619 398.2444121472063 L 314.76437370846475 399.2145790282158 L 314.9408602598586 399.80286753286197 L 315 400 L 314.9408602598586 400.19713246713803 L 314.76437370846475 400.7854209717842 L 314.4733236441619 401.7555878527937 L 314.07230010032896 403.09233299890343 L 313.56762745781214 404.7745751406263 L 312.96726470566057 406.7757843144647 L 312.2806799231152 409.06440025628274 L 311.51870096234245 411.6043301255251 L 310.69334468673804 414.3555177108732 L 309.81762745781214 417.27457514062627 L 308.90535985939295 420.31546713535687 L 307.97092889646984 423.43023701176713 L 307.02907110353016 426.5697629882328 L 306.09464014060705 429.68453286464313 L 305.1823725421879 432.7254248593737 L 304.30665531326196 435.6444822891268 L 303.48129903765755 438.3956698744749 L 302.7193200768848 440.93559974371726 L 302.03273529433943 443.2242156855353 L 301.4323725421879 445.2254248593737 L 300.92769989967104 446.90766700109657 L 300.5266763558381 448.2444121472063 L 300.23562629153525 449.2145790282158 L 300.0591397401414 449.80286753286197 L 300 450 L 299.9408602598586 449.80286753286197 L 299.76437370846475 449.2145790282158 L 299.4733236441619 448.2444121472063 L 299.07230010032896 446.90766700109657 L 298.56762745781214 445.2254248593737 L 297.9672647056606 443.2242156855353 L 297.2806799231152 440.93559974371726 L 296.51870096234245 438.3956698744749 L 295.69334468673804 435.6444822891268 L 294.81762745781214 432.7254248593737 L 293.90535985939295 429.68453286464313 L 292.97092889646984 426.56976298823287 L 292.02907110353016 423.4302370117672 L 291.09464014060705 420.31546713535687 L 290.1823725421879 417.2745751406263 L 289.30665531326196 414.3555177108732 L 288.48129903765755 411.6043301255251 L 287.71932007688486 409.0644002562828 L 287.03273529433943 406.7757843144647 L 286.4323725421879 404.7745751406263 L 285.92769989967104 403.09233299890343 L 285.5266763558381 401.7555878527937 L 285.23562629153525 400.7854209717842 L 285.0591397401414 400.19713246713803 L 285 400" fill="yellow" stroke="#2F4F4F" stroke-width="4"/>
    <path d="M 220.8974596215561 237.00961894323348 L 220.8974596215561 237.00961894323348 L 221.03861147593764 237.15940169413818 L 221.45984099001865 237.60638778339464 L 222.15450512273176 238.34352797335873 L 223.11164860573183 239.35919712288856 L 224.3161767145222 240.63737752276464 L 225.74909332127694 242.157911504533 L 227.38780047512472 243.89681933897816 L 229.2064547853331 245.82667741077773 L 231.17637498701873 247.91705070529815 L 233.2664942618277 250.13497278695627 L 235.4438501802195 252.44546569960198 L 237.67410453867177 254.81209158978126 L 239.92208489366234 257.1975273534522 L 242.15233925211464 259.5641532436315 L 244.32969517050645 261.8746461562772 L 246.4198144453154 264.0925682379353 L 248.38973464700103 266.18294153245574 L 250.20838895720942 268.1127996042553 L 251.84709611105717 269.8517074387005 L 253.28001271781193 271.37224142046887 L 254.48454082660228 272.65042182034495 L 255.44168430960235 273.66609096987474 L 256.13634844231547 274.40323115983887 L 256.55757795639647 274.8502172490953 L 256.69872981077805 275 L 256.49843821625507 274.9526502837667 L 255.9007221507802 274.81134786837697 L 254.91500795376425 274.5783211773316 L 253.55684092693127 274.25724518075174 L 251.84764017562406 273.8531834389049 L 249.8143608167178 273.37250824683485 L 247.48906888032457 272.82280013946195 L 244.90843560934348 272.2127283420192 L 242.11315913205345 271.5519140511915 L 239.14732262831856 270.8507787030966 L 236.05769911150756 270.1203796210117 L 232.8930137901322 269.3722356347807 L 229.70317564220196 268.618145421986 L 226.53849032082658 267.870001435755 L 223.44886680401558 267.13960235367017 L 220.48303030028072 266.43846700557515 L 217.68775382299066 265.77765271474743 L 215.10712055200958 265.1675809173047 L 212.78182861561638 264.6178728099318 L 210.7485492567101 264.1371976178618 L 209.0393485054029 263.73313587601496 L 207.6811814785699 263.4120598794351 L 206.69546728155393 263.17903318838967 L 206.09775121607908 263.037730773 L 205.8974596215561 262.99038105676664 L 205.75630776717455 262.84059830586193 L 205.33507825309354 262.39361221660545 L 204.64041412038043 261.6564720266414 L 203.68327063738036 260.6408028771116 L 202.47874252859 259.3626224772355 L 201.04582592183525 257.8420884954671 L 199.40711876798747 256.10318066102195 L 197.58846445777908 254.17332258922238 L 195.61854425609346 252.082949294702 L 193.52842498128453 249.86502721304385 L 191.3510690628927 247.55453430039813 L 189.12081470444042 245.18790841021885 L 186.87283434944985 242.8024726465479 L 184.64257999099755 240.4358467563686 L 182.46522407260574 238.1253538437229 L 180.37510479779678 235.90743176206473 L 178.40518459611118 233.81705846754437 L 176.58653028590277 231.88720039574477 L 174.94782313205502 230.1482925612996 L 173.51490652530026 228.62775857953125 L 172.31037841650988 227.34957817965517 L 171.3532349335098 226.33390903012537 L 170.65857080079672 225.59676884016127 L 170.2373412867157 225.1497827509048 L 170.09618943233414 225.00000000000009 L 170.29648102685712 225.04734971623344 L 170.89419709233198 225.18865213162314 L 171.87991128934792 225.42167882266853 L 173.23807831618092 225.7427548192484 L 174.94727906748813 226.14681656109522 L 176.9805584263944 226.62749175316526 L 179.30585036278757 227.17719986053814 L 181.8864836337687 227.78727165798088 L 184.68176011105874 228.4480859488086 L 187.6475966147936 229.14922129690356 L 190.7372201316046 229.87962037898842 L 193.90190545297995 230.62776436521943 L 197.09174360091023 231.38185457801413 L 200.2564289222856 232.1299985642451 L 203.34605243909658 232.86039764632997 L 206.31188894283147 233.56153299442497 L 209.1071654201215 234.22234728525268 L 211.6877986911026 234.83241908269542 L 214.0130906274958 235.3821271900683 L 216.04636998640208 235.86280238213834 L 217.7555707377093 236.26686412398516 L 219.1137377645423 236.58794012056504 L 220.09945196155826 236.82096681161042 L 220.69716802703311 236.96226922700012 L 220.8974596215561 237.00961894323348" fill="yellow" stroke="#2F4F4F" stroke-width="4"/>
    <path d="M 310 210 L 310 210 L 309.9605735065724 210.19713246713806 L 309.84291580564314 210.78542097178422 L 309.64888242944124 211.75558785279372 L 309.3815334002193 213.0923329989034 L 309.04508497187476 214.77457514062633 L 308.64484313710705 216.77578431446472 L 308.18711994874343 219.06440025628277 L 307.67913397489497 221.60433012552508 L 307.12889645782536 224.3555177108732 L 306.54508497187476 227.27457514062633 L 305.93690657292865 230.31546713535687 L 305.31395259764656 233.43023701176716 L 304.68604740235344 236.56976298823284 L 304.06309342707135 239.6845328646431 L 303.45491502812524 242.72542485937367 L 302.87110354217464 245.6444822891268 L 302.32086602510503 248.39566987447492 L 301.81288005125657 250.93559974371726 L 301.35515686289295 253.22421568553528 L 300.95491502812524 255.22542485937367 L 300.6184665997807 256.90766700109657 L 300.35111757055876 258.2444121472063 L 300.15708419435686 259.2145790282158 L 300.0394264934276 259.8028675328619 L 300 260 L 299.9605735065724 259.8028675328619 L 299.84291580564314 259.2145790282158 L 299.64888242944124 258.2444121472063 L 299.3815334002193 256.90766700109657 L 299.04508497187476 255.22542485937367 L 298.64484313710705 253.22421568553528 L 298.18711994874343 250.93559974371723 L 297.67913397489497 248.3956698744749 L 297.12889645782536 245.6444822891268 L 296.54508497187476 242.72542485937367 L 295.93690657292865 239.6845328646431 L 295.31395259764656 236.5697629882328 L 294.68604740235344 233.4302370117672 L 294.06309342707135 230.3154671353569 L 293.45491502812524 227.27457514062633 L 292.87110354217464 224.35551771087322 L 292.32086602510503 221.60433012552508 L 291.81288005125657 219.06440025628277 L 291.35515686289295 216.77578431446472 L 290.95491502812524 214.77457514062633 L 290.6184665997807 213.09233299890343 L 290.35111757055876 211.75558785279372 L 290.15708419435686 210.78542097178422 L 290.0394264934276 210.19713246713806 L 290 210 L 290.0394264934276 209.80286753286194 L 290.15708419435686 209.21457902821578 L 290.35111757055876 208.24441214720628 L 290.6184665997807 206.9076670010966 L 290.95491502812524 205.2254248593737 L 291.35515686289295 203.22421568553528 L 291.81288005125657 200.93559974371726 L 292.32086602510503 198.39566987447492 L 292.87110354217464 195.6444822891268 L 293.45491502812524 192.7254248593737 L 294.06309342707135 189.68453286464313 L 294.68604740235344 186.56976298823287 L 295.31395259764656 183.43023701176716 L 295.93690657292865 180.31546713535687 L 296.54508497187476 177.27457514062633 L 297.12889645782536 174.35551771087316 L 297.67913397489497 171.60433012552508 L 298.18711994874343 169.06440025628274 L 298.64484313710705 166.77578431446472 L 299.04508497187476 164.77457514062633 L 299.3815334002193 163.0923329989034 L 299.64888242944124 161.75558785279372 L 299.84291580564314 160.78542097178422 L 299.9605735065724 160.19713246713806 L 300 160 L 300.0394264934276 160.19713246713806 L 300.15708419435686 160.78542097178422 L 300.35111757055876 161.75558785279372 L 300.6184665997807 163.09233299890343 L 300.95491502812524 164.77457514062633 L 301.35515686289295 166.7757843144647 L 301.81288005125657 169.06440025628274 L 302.32086602510503 171.6043301255251 L 302.87110354217464 174.3555177108732 L 303.45491502812524 177.2745751406263 L 304.06309342707135 180.31546713535687 L 304.68604740235344 183.43023701176713 L 305.31395259764656 186.5697629882328 L 305.93690657292865 189.68453286464313 L 306.54508497187476 192.72542485937367 L 307.12889645782536 195.64448228912678 L 307.67913397489497 198.3956698744749 L 308.18711994874343 200.93559974371723 L 308.64484313710705 203.22421568553528 L 309.04508497187476 205.22542485937367 L 309.3815334002193 206.90766700109657 L 309.64888242944124 208.24441214720628 L 309.84291580564314 209.21457902821578 L 309.9605735065724 209.80286753286194 L 310 210" fill="yellow" stroke="#2F4F4F" stroke-width="4"/>
    <path d="M 372.9422863405995 353.66025403784437 L 372.9422863405995 353.66025403784437 L 372.791277862861 353.5275434593849 L 372.3406339235477 353.13150464910626 L 371.5974614467841 352.4783833756286 L 370.57348070647856 351.5784797515904 L 369.28484049060205 350.4459857947192 L 367.75186342515536 349.0987616112339 L 365.9987254742167 347.5580537313008 L 364.0530746705462 345.8481600385607 L 361.9455950895932 343.9960465779891 L 359.7095229432966 342.0309222852581 L 357.3801224251682 339.9837783443726 L 354.9941295728954 337.8868994381847 L 352.5891729190816 335.77335459965974 L 350.2031800668088 333.67647569347184 L 347.87377954868043 331.62933175258627 L 345.63770740238385 329.66420745985533 L 343.5302278214308 327.8120939992837 L 341.5845770177603 326.1022003065436 L 339.83143906682164 324.56149242661047 L 338.29846200137496 323.21426824312516 L 337.0098217854985 322.08177428625396 L 335.9858410451929 321.18187066221583 L 335.24266856842934 320.52874938873816 L 334.792024629116 320.13271057845947 L 334.6410161513775 320 L 334.8314511225436 320.06442188867857 L 335.39975276278614 320.25667158304606 L 336.33695861575166 320.5737171905779 L 337.6282883852792 321.01055871264947 L 339.2533770295002 321.56030689750116 L 341.1865959297146 322.21429188785424 L 343.39745706901687 322.96219994973916 L 345.85109384653583 323.7922361262414 L 348.5088109445585 324.69131025101785 L 351.32869457680573 325.64524338804006 L 354.2662734938802 326.6389914418851 L 357.27522032143503 327.65688241210745 L 360.308082170542 328.6828635500482 L 363.3170289980968 329.70075452027055 L 366.25460791517133 330.6945025741156 L 369.0744915474185 331.6484357111377 L 371.7322086454412 332.54750983591424 L 374.18584542296014 333.3775460124164 L 376.3967065622624 334.1254540743014 L 378.3299254624768 334.77943906465447 L 379.95501410669783 335.32918724950616 L 381.24634387622535 335.7660287715777 L 382.1835497291909 336.0830743791095 L 382.75185136943344 336.275324073477 L 382.9422863405995 336.33974596215563 L 383.09329481833794 336.4724565406151 L 383.54393875765123 336.86849535089374 L 384.28711123441485 337.5216166243714 L 385.3110919747204 338.4215202484096 L 386.5997321905969 339.5540142052808 L 388.1327092560436 340.9012383887661 L 389.88584720698225 342.4419462686992 L 391.83149801065275 344.1518399614393 L 393.93897759160575 346.0039534220109 L 396.1750497379024 347.96907771474184 L 398.50445025603074 350.0162216556274 L 400.8904431083035 352.1131005618153 L 403.29539976211737 354.22664540034026 L 405.6813926143902 356.32352430652816 L 408.01079313251853 358.37066824741373 L 410.2468652788151 360.33579254014467 L 412.35434485976816 362.1879060007163 L 414.29999566343866 363.8977996934564 L 416.0531336143773 365.43850757338953 L 417.586110679824 366.78573175687484 L 418.8747508957005 367.91822571374604 L 419.89873163600606 368.81812933778417 L 420.6419041127696 369.47125061126184 L 421.092548052083 369.86728942154053 L 421.24355652982143 370 L 421.05312155865533 369.93557811132143 L 420.4848199184128 369.74332841695394 L 419.5476140654473 369.4262828094221 L 418.2562842959198 368.98944128735053 L 416.63119565169876 368.43969310249884 L 414.69797675148436 367.78570811214576 L 412.48711561218215 367.03780005026084 L 410.03347883466313 366.2077638737586 L 407.37576173664047 365.30868974898215 L 404.5558781043933 364.35475661195994 L 401.6182991873188 363.3610085581149 L 398.609352359764 362.34311758789255 L 395.576490510657 361.3171364499518 L 392.5675436831021 360.29924547972945 L 389.6299647660277 359.3054974258844 L 386.81008113378044 358.3515642888623 L 384.15236403575784 357.45249016408576 L 381.6987272582388 356.6224539875836 L 379.4878661189365 355.8745459256986 L 377.55464721872215 355.22056093534553 L 375.92955857450113 354.67081275049384 L 374.6382288049736 354.2339712284223 L 373.7010229520081 353.9169256208905 L 373.1327213117655 353.724675926523 L 372.9422863405995 353.66025403784437" fill="yellow" stroke="#2F4F4F" stroke-width="4"/>
    <path d="M 217.05771365940055 336.3397459621557 L 217.05771365940055 336.3397459621557 L 217.24814863056662 336.2753240734771 L 217.81645027080916 336.0830743791096 L 218.75365612377465 335.76602877157774 L 220.04498589330214 335.3291872495062 L 221.67007453752322 334.7794390646545 L 223.6032934377376 334.12545407430144 L 225.81415457703986 333.3775460124165 L 228.26779135455885 332.5475098359143 L 230.92550845258148 331.6484357111378 L 233.7453920848287 330.69450257411563 L 236.68297100190316 329.7007545202706 L 239.69191782945802 328.68286355004824 L 242.724779678565 327.65688241210745 L 245.73372650611984 326.6389914418851 L 248.6713054231943 325.6452433880401 L 251.49118905544154 324.6913102510179 L 254.14890615346417 323.7922361262414 L 256.60254293098313 322.9621999497392 L 258.8134040702854 322.2142918878543 L 260.7466229704998 321.56030689750116 L 262.3717116147209 321.01055871264947 L 263.66304138424834 320.57371719057795 L 264.60024723721386 320.2566715830461 L 265.1685488774564 320.0644218886786 L 265.3589838486225 320.00000000000006 L 265.207975370884 320.1327105784595 L 264.7573314315707 320.52874938873816 L 264.0141589548071 321.18187066221583 L 262.99017821450155 322.081774286254 L 261.70153799862504 323.2142682431252 L 260.16856093317836 324.5614924266105 L 258.4154229822397 326.10220030654364 L 256.4697721785692 327.8120939992838 L 254.36229259761618 329.6642074598554 L 252.12622045131957 331.6293317525863 L 249.79681993319122 333.6764756934719 L 247.4108270809184 335.7733545996598 L 245.00587042710458 337.8868994381847 L 242.6198775748318 339.9837783443726 L 240.29047705670345 342.03092228525816 L 238.05440491040684 343.9960465779891 L 235.94692532945382 345.84816003856076 L 234.00127452578332 347.55805373130084 L 232.24813657484464 349.09876161123395 L 230.71515950939798 350.44598579471926 L 229.4265192935215 351.57847975159046 L 228.40253855321592 352.47838337562865 L 227.65936607645233 353.13150464910626 L 227.208722137139 353.52754345938496 L 227.05771365940055 353.6602540378444 L 226.86727868823448 353.724675926523 L 226.29897704799194 353.91692562089054 L 225.36177119502645 354.2339712284224 L 224.07044142549896 354.6708127504939 L 222.44535278127788 355.2205609353456 L 220.5121338810635 355.87454592569867 L 218.30127274176124 356.6224539875836 L 215.84763596424224 357.4524901640858 L 213.18991886621964 358.35156428886233 L 210.37003523397243 359.3054974258845 L 207.43245631689794 360.2992454797295 L 204.4235094893431 361.3171364499519 L 201.3906476402361 362.34311758789266 L 198.38170081268123 363.36100855811503 L 195.4441218956068 364.35475661196 L 192.62423826335953 365.3086897489822 L 189.96652116533693 366.20776387375867 L 187.5128843878179 367.0378000502609 L 185.30202324851567 367.7857081121458 L 183.3688043483013 368.43969310249895 L 181.74371570408022 368.98944128735064 L 180.45238593455272 369.42628280942216 L 179.51518008158726 369.743328416954 L 178.9468784413447 369.9355781113215 L 178.75644347017862 370.00000000000006 L 178.90745194791708 369.8672894215406 L 179.3580958872304 369.47125061126195 L 180.101268363994 368.8181293377843 L 181.12524910429954 367.9182257137461 L 182.41388932017605 366.7857317568749 L 183.9468663856227 365.43850757338964 L 185.70000433656136 363.89779969345653 L 187.64565514023192 362.18790600071634 L 189.75313472118492 360.3357925401448 L 191.98920686748153 358.3706682474138 L 194.31860738560985 356.32352430652827 L 196.70460023788263 354.2266454003404 L 199.10955689169649 352.11310056181543 L 201.49554974396932 350.01622165562753 L 203.82495026209764 347.96907771474196 L 206.06102240839425 346.003953422011 L 208.16850198934725 344.1518399614394 L 210.11415279301778 342.44194626869927 L 211.86729074395646 340.90123838876616 L 213.40026780940312 339.55401420528085 L 214.6889080252796 338.42152024840965 L 215.71288876558518 337.52161662437146 L 216.45606124234877 336.86849535089385 L 216.9067051816621 336.47245654061516 L 217.05771365940055 336.3397459621557" fill="yellow" stroke="#2F4F4F" stroke-width="4"/>
    <path d="M 373 300 Q 354.26762888871156 311.5349406065693 366.6888184079099 329.6917749445334 Q 344.88426284792206 332.6103257971864 348.84653426419663 354.2495722598498 Q 327.74 348.04708940196065 322.55824058937117 369.4271256895462 Q 305.79923914208945 355.1760747550318 292.3694221814613 372.60009836188397 Q 282.85573715207795 352.7646155240551 263.5 363.219854476264 Q 262.87663395921055 341.22967491748585 240.94175941062883 342.9083234173505 Q 249.3164980099885 322.56574895784536 228.5952251464322 315.17755342969645 Q 244.51999999999998 300 228.5952251464322 284.8224465703036 Q 249.3164980099885 277.43425104215464 240.94175941062883 257.0916765826495 Q 262.87663395921055 258.7703250825142 263.49999999999994 236.780145523736 Q 282.8557371520779 247.23538447594487 292.36942218146123 227.39990163811603 Q 305.7992391420894 244.8239252449682 322.55824058937117 230.57287431045378 Q 327.74 251.95291059803935 348.8465342641967 245.75042774015023 Q 344.88426284792206 267.3896742028136 366.6888184079099 270.3082250554666 Q 354.26762888871156 288.4650593934307 373 299.99999999999994" fill="yellow" stroke="#2F4F4F" stroke-width="4"/>
    <polygon points="310,300 305,308.66025403784437 295,308.66025403784437 290,300 295,291.33974596215563 305,291.33974596215563" fill="yellow" stroke="black" stroke-width="4"/>
  </g>
</svg>